<svg width="290" height="53" viewBox="0 0 290 53" fill="none" xmlns="http://www.w3.org/2000/svg">
<path d="M15.912 18.0181C17.424 18.0181 18.612 17.5741 19.476 16.6861C20.34 15.7981 20.772 14.5741 20.772 13.0141C20.772 10.9501 20.244 9.25806 19.188 7.93806C18.156 6.61806 16.644 5.95806 14.652 5.95806C13.212 5.95806 11.892 6.39006 10.692 7.25406V28.7101L16.524 30.1501L15.624 31.9501H1.98V30.4741L5.364 27.8101V6.64206L1.548 5.41806L2.448 3.61806H7.344C9.624 3.61806 11.844 3.54606 14.004 3.40206C15.636 3.30606 16.824 3.25806 17.568 3.25806C19.32 3.25806 20.88 3.61806 22.248 4.33806C23.616 5.05806 24.672 6.04206 25.416 7.29006C26.16 8.53806 26.532 9.93006 26.532 11.4661C26.532 13.1701 25.896 14.7781 24.624 16.2901C23.352 17.7781 21.744 18.9541 19.8 19.8181C17.856 20.6581 15.96 21.0301 14.112 20.9341L12.456 19.7821L13.356 17.9821H15.912V18.0181ZM38.0945 31.9141H27.5105V30.4381L30.7145 27.8461V6.67806L27.5105 4.48206V3.00606L34.0265 0.486062H35.7545V28.9261L38.9945 30.1141L38.0945 31.9141ZM59.5848 31.9141H52.2048V28.7821L48.1368 31.9861C47.6568 32.1781 47.0568 32.2741 46.3368 32.2741C44.1768 32.2741 42.6048 31.7461 41.6208 30.6901C40.6608 29.6101 40.1808 28.3141 40.1808 26.8021C40.1808 25.9141 40.4808 25.0501 41.0808 24.2101C41.7048 23.3461 42.5808 22.5301 43.7088 21.7621H52.2048V20.1061C52.2048 17.3701 50.7408 16.0021 47.8128 16.0021C46.2768 16.0021 44.3088 16.8061 41.9088 18.4141L40.8288 16.7941L45.9408 12.7261C46.9488 12.4621 48.2088 12.3301 49.7208 12.3301C52.0968 12.3301 53.9448 12.8941 55.2648 14.0221C56.5848 15.1501 57.2448 16.7941 57.2448 18.9541V28.8541L60.4848 30.1141L59.5848 31.9141ZM47.7408 28.4941C49.0848 28.4941 50.5728 27.8821 52.2048 26.6581V23.5981H46.0488C45.5688 24.1741 45.3288 24.8701 45.3288 25.6861C45.3288 26.4781 45.5448 27.1501 45.9768 27.7021C46.4328 28.2301 47.0208 28.4941 47.7408 28.4941ZM72.209 31.9861C71.561 32.1781 70.769 32.2741 69.833 32.2741C67.697 32.2741 66.137 31.7581 65.153 30.7261C64.193 29.6701 63.713 28.0501 63.713 25.8661V15.6061H59.825V13.9501L67.025 5.81406H68.753V13.7701H75.233V15.6061H68.753V26.0101C68.753 26.9701 68.981 27.6661 69.437 28.0981C69.917 28.5301 70.625 28.7461 71.561 28.7461C72.065 28.7461 72.545 28.6621 73.001 28.4941C73.481 28.3021 74.069 27.9541 74.765 27.4501L75.845 29.1061L72.209 31.9861ZM89.0933 31.8781C87.9893 32.1421 86.6333 32.2741 85.0253 32.2741C83.3693 32.2741 81.8813 31.8661 80.5613 31.0501C79.2653 30.2101 78.2453 29.0821 77.5013 27.6661C76.7573 26.2261 76.3853 24.6421 76.3853 22.9141C76.3853 21.0421 76.9613 19.3021 78.1133 17.6941C79.2893 16.0621 80.7533 14.7661 82.5053 13.8061C84.2573 12.8221 85.9493 12.3301 87.5813 12.3301C89.9573 12.3301 91.8053 13.2541 93.1253 15.1021C94.4453 16.9501 95.0933 19.4341 95.0693 22.5541H81.8573C82.0493 24.3781 82.5893 25.8541 83.4773 26.9821C84.3893 28.1101 85.6133 28.6741 87.1493 28.6741C88.7573 28.6741 91.0613 27.6061 94.0613 25.4701L95.1053 27.1261L89.0933 31.8781ZM85.5293 15.7861C83.1533 15.7861 81.9053 17.4301 81.7853 20.7181H89.5973C89.4053 19.5421 89.1893 18.6301 88.9493 17.9821C88.7333 17.3101 88.3493 16.7821 87.7973 16.3981C87.2693 15.9901 86.5133 15.7861 85.5293 15.7861ZM119.743 31.9141H97.6753V30.4381L101.059 27.7741V6.64206L97.2433 5.41806L98.1433 3.61806H119.383L121.579 2.97006V11.6101L120.139 12.1501L115.783 5.67006H106.387V16.4341H111.463L114.127 12.0421H115.603V22.8061L113.803 23.7061L111.499 18.4861H106.387V29.8261H115.603L120.499 22.6621L121.939 23.2021V32.5621L119.743 31.9141ZM144.813 31.9141H138.801L133.401 24.5341L129.693 27.9901L133.005 30.1501L132.105 31.9501H124.041V30.4741L132.141 22.9141L127.101 16.3621L123.825 14.4901L124.725 12.6901H130.701L136.137 19.9261L139.665 16.6501L136.353 14.5261L137.253 12.7261H145.317V14.2021L137.325 21.6181L142.257 28.0261L145.713 30.1141L144.813 31.9141ZM157.118 12.3301C158.174 12.3301 159.386 12.4741 160.754 12.7621C162.122 13.0261 163.118 13.3261 163.742 13.6621V19.6381H162.014C161.102 18.4381 160.046 17.5021 158.846 16.8301C157.646 16.1341 156.41 15.7861 155.138 15.7861C154.13 15.7861 153.362 16.2541 152.834 17.1901C152.306 18.1021 152.042 19.4341 152.042 21.1861C152.042 23.3221 152.498 25.1101 153.41 26.5501C154.322 27.9661 155.642 28.6741 157.37 28.6741C158.834 28.6741 160.898 27.7741 163.562 25.9741L164.642 27.6301L159.242 31.8781C158.186 32.1421 156.866 32.2741 155.282 32.2741C153.626 32.2741 152.138 31.8661 150.818 31.0501C149.522 30.2101 148.502 29.0821 147.758 27.6661C147.014 26.2261 146.642 24.6421 146.642 22.9141C146.642 21.0421 147.182 19.3021 148.262 17.6941C149.342 16.0621 150.698 14.7661 152.33 13.8061C153.986 12.8221 155.582 12.3301 157.118 12.3301ZM188.836 31.9141H181.456V20.0341C181.456 18.7621 181.264 17.8861 180.88 17.4061C180.496 16.9021 179.824 16.6501 178.864 16.6501C178.144 16.6501 177.424 16.7701 176.704 17.0101C175.984 17.2501 175.168 17.7061 174.256 18.3781V28.9261L177.496 30.1141L176.596 31.9141H166.012V30.4381L169.216 27.8461V6.67806L166.012 4.48206V3.00606L172.528 0.486062H174.256V16.2181L178.828 12.6181C179.332 12.4261 180.028 12.3301 180.916 12.3301C182.62 12.3301 183.976 12.8341 184.984 13.8421C185.992 14.8261 186.496 16.1701 186.496 17.8741V28.9261L189.736 30.1141L188.836 31.9141ZM210.039 31.9141H202.659V28.7821L198.591 31.9861C198.111 32.1781 197.511 32.2741 196.791 32.2741C194.631 32.2741 193.059 31.7461 192.075 30.6901C191.115 29.6101 190.635 28.3141 190.635 26.8021C190.635 25.9141 190.935 25.0501 191.535 24.2101C192.159 23.3461 193.035 22.5301 194.163 21.7621H202.659V20.1061C202.659 17.3701 201.195 16.0021 198.267 16.0021C196.731 16.0021 194.763 16.8061 192.363 18.4141L191.283 16.7941L196.395 12.7261C197.403 12.4621 198.663 12.3301 200.175 12.3301C202.551 12.3301 204.399 12.8941 205.719 14.0221C207.039 15.1501 207.699 16.7941 207.699 18.9541V28.8541L210.939 30.1141L210.039 31.9141ZM198.195 28.4941C199.539 28.4941 201.027 27.8821 202.659 26.6581V23.5981H196.503C196.023 24.1741 195.783 24.8701 195.783 25.6861C195.783 26.4781 195.999 27.1501 196.431 27.7021C196.887 28.2301 197.475 28.4941 198.195 28.4941ZM234.472 31.9141H227.092V20.0341C227.092 18.7621 226.9 17.8861 226.516 17.4061C226.132 16.9021 225.46 16.6501 224.5 16.6501C223.78 16.6501 223.06 16.7701 222.34 17.0101C221.62 17.2501 220.804 17.7061 219.892 18.3781V28.9261L223.132 30.1141L222.232 31.9141H211.648V30.4381L214.852 27.8461V18.4861L211.648 16.5421V15.0661L218.344 12.0061L219.604 16.4701L224.464 12.6181C224.968 12.4261 225.664 12.3301 226.552 12.3301C228.256 12.3301 229.612 12.8341 230.62 13.8421C231.628 14.8261 232.132 16.1701 232.132 17.8741V28.9261L235.372 30.1141L234.472 31.9141ZM252.526 15.6061C253.102 16.5181 253.39 17.4901 253.39 18.5221C253.39 20.0821 252.754 21.5701 251.482 22.9861C250.234 24.3781 248.686 25.3741 246.838 25.9741C246.214 26.6701 245.902 27.3541 245.902 28.0261C245.902 28.4101 246.19 28.7701 246.766 29.1061C247.342 29.4181 248.254 29.8381 249.502 30.3661C251.206 31.0621 252.502 31.6981 253.39 32.2741C254.302 32.8741 254.758 33.5821 254.758 34.3981C254.758 35.1421 254.29 36.0781 253.354 37.2061C252.418 38.3341 251.242 39.3181 249.826 40.1581C248.434 40.9981 247.09 41.4181 245.794 41.4181C244.378 41.4181 242.722 41.1901 240.826 40.7341C238.93 40.2781 237.346 39.8221 236.074 39.3661V33.4621H237.802C239.098 35.0941 240.406 36.3301 241.726 37.1701C243.046 38.0341 244.534 38.4661 246.19 38.4661C246.79 38.4661 247.33 38.3461 247.81 38.1061C248.314 37.8901 248.698 37.6141 248.962 37.2781C249.25 36.9421 249.394 36.6181 249.394 36.3061C249.394 35.7061 249.034 35.1661 248.314 34.6861C247.594 34.2301 246.514 33.6901 245.074 33.0661C243.61 32.4421 242.506 31.9021 241.762 31.4461C241.042 30.9661 240.682 30.4141 240.682 29.7901C240.682 29.2141 241.09 28.6261 241.906 28.0261C242.722 27.4261 243.682 26.8981 244.786 26.4421C244.306 26.4901 243.946 26.5141 243.706 26.5141C242.362 26.5141 241.126 26.2381 239.998 25.6861C238.894 25.1101 238.018 24.3421 237.37 23.3821C236.722 22.4221 236.398 21.3901 236.398 20.2861C236.398 18.9661 236.866 17.6941 237.802 16.4701C238.762 15.2221 239.998 14.2261 241.51 13.4821C243.022 12.7141 244.57 12.3301 246.154 12.3301C247.93 12.3301 249.49 12.8101 250.834 13.7701H256.594L256.558 15.6061H252.526ZM245.722 23.0221C247.69 23.0221 248.674 22.0861 248.674 20.2141C248.674 18.8941 248.242 17.8261 247.378 17.0101C246.538 16.1941 245.41 15.7861 243.994 15.7861C243.058 15.7861 242.338 16.0141 241.834 16.4701C241.33 16.9261 241.078 17.6101 241.078 18.5221C241.078 19.8661 241.498 20.9581 242.338 21.7981C243.202 22.6141 244.33 23.0221 245.722 23.0221ZM269.986 31.8781C268.882 32.1421 267.526 32.2741 265.918 32.2741C264.262 32.2741 262.774 31.8661 261.454 31.0501C260.158 30.2101 259.138 29.0821 258.394 27.6661C257.65 26.2261 257.278 24.6421 257.278 22.9141C257.278 21.0421 257.854 19.3021 259.006 17.6941C260.182 16.0621 261.646 14.7661 263.398 13.8061C265.15 12.8221 266.842 12.3301 268.474 12.3301C270.85 12.3301 272.698 13.2541 274.018 15.1021C275.338 16.9501 275.986 19.4341 275.962 22.5541H262.75C262.942 24.3781 263.482 25.8541 264.37 26.9821C265.282 28.1101 266.506 28.6741 268.042 28.6741C269.65 28.6741 271.954 27.6061 274.954 25.4701L275.998 27.1261L269.986 31.8781ZM266.422 15.7861C264.046 15.7861 262.798 17.4301 262.678 20.7181H270.49C270.298 19.5421 270.082 18.6301 269.842 17.9821C269.626 17.3101 269.242 16.7821 268.69 16.3981C268.162 15.9901 267.406 15.7861 266.422 15.7861Z" fill="#171717"/>
<path d="M51 41.499C79.9609 49.2101 172.274 56.1692 213 41.499" stroke="#FFCD0F" stroke-width="4" stroke-linecap="round"/>
</svg>
